<svg xmlns="http://www.w3.org/2000/svg" xmlns:xlink="http://www.w3.org/1999/xlink" width="500" zoomAndPan="magnify" viewBox="0 0 375 374.999991" height="500" preserveAspectRatio="xMidYMid meet" version="1.0"><defs><clipPath id="a13b444545"><path d="M 0.414062 37 L 76 37 L 76 176 L 0.414062 176 Z M 0.414062 37 " clip-rule="nonzero"/></clipPath><clipPath id="1bf945e3de"><path d="M 97 0.460938 L 169 0.460938 L 169 27 L 97 27 Z M 97 0.460938 " clip-rule="nonzero"/></clipPath><clipPath id="da214f3fa7"><path d="M 249 111 L 361.960938 111 L 361.960938 348 L 249 348 Z M 249 111 " clip-rule="nonzero"/></clipPath><clipPath id="8eb6c24c9b"><path d="M 177 345 L 239 345 L 239 360.679688 L 177 360.679688 Z M 177 345 " clip-rule="nonzero"/></clipPath><clipPath id="a95900f7f5"><path d="M 45.074219 43.574219 L 319.835938 43.574219 L 319.835938 316.957031 L 45.074219 316.957031 Z M 45.074219 43.574219 " clip-rule="nonzero"/></clipPath><clipPath id="5ace95e94a"><rect x="0" width="362" y="0" height="361"/></clipPath></defs><g transform="matrix(1, 0, 0, 1, 5, 7)"><g clip-path="url(#5ace95e94a)"><path fill="#0a2540" d="M 181.773438 346.8125 C 159.269531 346.8125 137.4375 342.40625 116.882812 333.710938 C 97.03125 325.316406 79.203125 313.296875 63.894531 297.984375 C 48.585938 282.679688 36.566406 264.847656 28.167969 244.996094 C 19.472656 224.441406 15.066406 202.609375 15.066406 180.105469 C 15.066406 157.605469 19.476562 135.769531 28.167969 115.214844 C 36.566406 95.363281 48.585938 77.535156 63.894531 62.226562 C 79.203125 46.917969 97.03125 34.898438 116.882812 26.5 C 137.4375 17.804688 159.273438 13.398438 181.773438 13.398438 C 204.277344 13.398438 226.109375 17.808594 246.664062 26.5 C 266.515625 34.898438 284.347656 46.917969 299.652344 62.226562 C 314.960938 77.535156 326.980469 95.363281 335.378906 115.214844 C 344.074219 135.769531 348.480469 157.605469 348.480469 180.105469 C 348.480469 202.609375 344.074219 224.441406 335.378906 244.996094 C 326.984375 264.847656 314.964844 282.679688 299.652344 297.984375 C 284.347656 313.292969 266.515625 325.3125 246.664062 333.710938 C 226.113281 342.40625 204.277344 346.8125 181.773438 346.8125 Z M 181.773438 20.855469 C 93.964844 20.855469 22.523438 92.296875 22.523438 180.105469 C 22.523438 267.914062 93.964844 339.355469 181.773438 339.355469 C 269.585938 339.355469 341.023438 267.914062 341.023438 180.105469 C 341.023438 92.296875 269.585938 20.855469 181.773438 20.855469 Z M 181.773438 20.855469 " fill-opacity="1" fill-rule="nonzero"/><g clip-path="url(#a13b444545)"><path fill="#0a2540" d="M 7.875 175.085938 L 0.417969 174.96875 C 0.859375 147.789062 7.738281 120.71875 20.316406 96.679688 C 32.429688 73.53125 49.925781 53.039062 70.925781 37.417969 L 75.375 43.402344 C 55.273438 58.355469 38.519531 77.972656 26.925781 100.132812 C 14.882812 123.148438 8.296875 149.066406 7.875 175.085938 Z M 7.875 175.085938 " fill-opacity="1" fill-rule="nonzero"/></g><path fill="#0a2540" d="M 76.800781 325.765625 C 68.914062 320.527344 61.414062 314.574219 54.507812 308.074219 C 44.855469 298.984375 36.296875 288.769531 29.074219 277.710938 C 15.179688 256.445312 6.164062 231.804688 3.003906 206.464844 L 10.40625 205.542969 C 13.425781 229.765625 22.039062 253.308594 35.316406 273.632812 C 47.277344 291.941406 62.625 307.390625 80.929688 319.554688 Z M 76.800781 325.765625 " fill-opacity="1" fill-rule="nonzero"/><g clip-path="url(#1bf945e3de)"><path fill="#0a2540" d="M 100.703125 26.191406 L 97.027344 19.703125 C 108.085938 13.433594 119.921875 8.613281 132.203125 5.371094 C 143.996094 2.261719 156.160156 0.617188 168.355469 0.484375 L 168.4375 7.945312 C 156.851562 8.066406 145.300781 9.628906 134.105469 12.582031 C 122.445312 15.664062 111.207031 20.242188 100.703125 26.191406 Z M 100.703125 26.191406 " fill-opacity="1" fill-rule="nonzero"/></g><g clip-path="url(#da214f3fa7)"><path fill="#0a2540" d="M 252.433594 347.882812 L 249.457031 341.25 C 265.75 333.945312 320.734375 305.015625 344.265625 239.488281 C 364.578125 182.925781 349.351562 132.984375 341.863281 114.136719 L 348.617188 111.453125 C 354.351562 125.882812 358.40625 142.050781 360.347656 158.210938 C 363.8125 187.054688 360.703125 215.222656 351.109375 241.941406 C 345.164062 258.507812 336.824219 274.066406 326.332031 288.191406 C 317.722656 299.78125 307.597656 310.5 296.238281 320.054688 C 282.792969 331.363281 267.234375 341.246094 252.433594 347.882812 Z M 252.433594 347.882812 " fill-opacity="1" fill-rule="nonzero"/></g><g clip-path="url(#8eb6c24c9b)"><path fill="#0a2540" d="M 192.527344 360.484375 C 187.507812 360.484375 182.484375 360.191406 177.496094 359.605469 L 178.34375 352.386719 C 187.757812 353.492188 197.300781 353.492188 206.707031 352.386719 C 216.605469 351.222656 226.359375 348.839844 235.683594 345.296875 L 238.265625 352.09375 C 228.378906 355.847656 218.046875 358.375 207.554688 359.605469 C 202.570312 360.191406 197.550781 360.484375 192.527344 360.484375 Z M 192.527344 360.484375 " fill-opacity="1" fill-rule="nonzero"/></g><path fill="#0a2540" d="M 308.457031 63.667969 C 300.699219 54.199219 291.757812 45.738281 281.878906 38.523438 C 271.527344 30.960938 260.203125 24.800781 248.21875 20.214844 L 250.8125 13.425781 C 263.398438 18.242188 275.292969 24.710938 286.167969 32.652344 C 296.539062 40.230469 305.933594 49.117188 314.078125 59.0625 Z M 308.457031 63.667969 " fill-opacity="1" fill-rule="nonzero"/><g clip-path="url(#a95900f7f5)"><path fill="#0a2540" d="M 182.546875 43.480469 C 219.09375 43.480469 253.824219 57.804688 279.644531 83.636719 C 305.558594 109.375 319.921875 144 319.921875 180.53125 C 319.921875 216.96875 305.558594 251.59375 279.644531 277.332031 C 253.824219 303.167969 219.09375 317.484375 182.546875 317.484375 C 145.902344 317.484375 111.171875 303.167969 85.351562 277.332031 C 59.441406 251.59375 45.074219 216.96875 45.074219 180.53125 C 45.074219 144 59.441406 109.375 85.351562 83.636719 C 111.171875 57.804688 145.902344 43.480469 182.546875 43.480469 Z M 170.90625 267.542969 C 180.726562 270.082031 190.546875 272.710938 200.363281 275.15625 C 209.726562 277.605469 219.183594 279.785156 228.640625 282.042969 L 229.730469 280.957031 C 221.003906 263.195312 212.367188 245.429688 203.726562 227.660156 C 199.90625 227.933594 196.179688 227.207031 192.90625 225.394531 C 184.453125 236.363281 176 247.332031 167.542969 258.207031 C 169.632812 260.292969 170.996094 263.648438 170.996094 266.546875 C 170.996094 266.910156 170.996094 267.183594 170.90625 267.542969 Z M 273.464844 84.089844 C 266.824219 77.835938 259.460938 72.214844 251.550781 67.410156 C 246.007812 69.765625 240.550781 72.035156 235.007812 74.480469 C 235.460938 77.019531 234.460938 79.648438 232.1875 81.007812 C 232.824219 82.726562 233.460938 84.449219 234.097656 86.261719 C 237.277344 86.355469 240.28125 87.894531 241.914062 90.617188 C 252.460938 88.441406 263.007812 86.261719 273.464844 84.089844 Z M 246.640625 64.597656 C 227.003906 53.722656 205 48.101562 182.546875 48.101562 C 182.457031 48.101562 182.363281 48.101562 182.273438 48.101562 C 188 51.097656 193.636719 53.996094 199.273438 56.988281 C 207.09375 61.15625 214.820312 65.417969 222.546875 69.675781 C 222.914062 69.40625 223.1875 69.226562 223.640625 68.953125 C 224.820312 68.320312 226.09375 68.136719 227.460938 68.136719 C 229.367188 68.226562 231.367188 69.042969 232.824219 70.398438 C 237.367188 68.5 242.007812 66.503906 246.640625 64.597656 Z M 157.359375 50.550781 C 150.359375 51.824219 143.539062 53.722656 136.90625 56.171875 C 148.902344 68.773438 160.632812 81.367188 172.453125 94.152344 C 172.816406 93.96875 173.179688 93.878906 173.542969 93.699219 L 164.996094 52.726562 C 162.359375 52.726562 159.449219 52.003906 157.359375 50.550781 Z M 132.265625 57.984375 C 131.632812 58.257812 130.902344 58.527344 130.175781 58.796875 C 129.628906 59.25 128.992188 59.703125 128.359375 60.070312 C 122.449219 68.046875 116.445312 75.929688 110.628906 83.910156 C 104.71875 92.0625 98.898438 100.3125 93.078125 108.558594 C 94.261719 109.828125 95.171875 111.554688 95.714844 113.183594 C 107.082031 111.375 118.445312 109.558594 129.902344 107.835938 C 142.082031 106.023438 154.269531 104.390625 166.453125 102.757812 C 166.722656 100.679688 167.542969 98.769531 168.816406 97.140625 C 156.722656 83.996094 144.539062 70.945312 132.265625 57.984375 Z M 89.351562 106.207031 C 94.898438 98.410156 100.351562 90.523438 105.992188 82.820312 C 110.628906 76.382812 115.445312 69.945312 120.265625 63.605469 C 108.625 69.765625 97.988281 77.65625 88.625 86.894531 C 83.53125 91.976562 78.804688 97.503906 74.625 103.394531 L 78.351562 108.019531 C 81.535156 105.574219 85.53125 104.753906 89.351562 106.207031 Z M 66.53125 115.996094 C 68.714844 116.175781 70.898438 116.355469 72.988281 116.539062 C 73.351562 114.726562 74.078125 113 75.078125 111.375 C 74.078125 110.011719 72.988281 108.652344 71.898438 107.292969 C 69.988281 110.101562 68.167969 113 66.53125 115.996094 Z M 64.167969 120.523438 C 57.53125 133.488281 53.074219 147.535156 51.074219 161.949219 C 58.53125 172.917969 65.988281 183.792969 73.625 194.582031 C 74.808594 182.707031 75.988281 170.742188 77.441406 158.867188 C 78.53125 149.714844 79.714844 140.558594 80.988281 131.492188 C 77.261719 130.402344 74.535156 127.234375 73.714844 123.425781 C 73.625 122.703125 73.535156 121.976562 73.535156 121.160156 C 70.441406 120.886719 67.261719 120.707031 64.167969 120.523438 Z M 71.351562 199.203125 C 64.167969 189.140625 57.167969 179.078125 50.257812 168.835938 C 49.894531 172.734375 49.710938 176.632812 49.710938 180.53125 C 49.710938 188.140625 50.4375 195.667969 51.710938 203.191406 C 58.257812 201.828125 64.804688 200.5625 71.351562 199.203125 Z M 52.53125 207.722656 C 54.441406 216.511719 57.167969 225.128906 60.804688 233.375 L 61.894531 230.289062 C 59.621094 227.933594 58.347656 224.855469 58.257812 221.585938 C 57.984375 214.886719 62.894531 208.992188 69.53125 209.53125 C 70.257812 207.722656 70.988281 205.816406 71.621094 204.003906 C 65.261719 205.277344 58.894531 206.453125 52.53125 207.722656 Z M 63.441406 239.175781 C 69.894531 252.046875 78.441406 263.921875 88.625 274.070312 C 100.351562 285.671875 113.898438 294.921875 128.628906 301.441406 C 128.265625 301.261719 127.992188 300.988281 127.632812 300.722656 C 123.449219 296.820312 122.175781 290.746094 125.628906 286.125 C 117.171875 277.425781 108.625 268.636719 100.261719 259.746094 C 91.988281 250.777344 83.804688 241.710938 75.714844 232.648438 C 72.621094 234.644531 68.894531 234.644531 65.621094 233.101562 C 64.894531 235.097656 64.167969 237.089844 63.441406 239.175781 Z M 135.085938 304.164062 C 149.996094 309.878906 166.089844 312.863281 182.546875 312.863281 C 208.09375 312.863281 232.914062 305.617188 254.28125 291.832031 L 240.640625 289.300781 C 239.1875 291.292969 236.914062 292.5625 234.367188 292.652344 C 231.914062 292.742188 229.460938 291.746094 228.09375 289.660156 C 227.914062 289.386719 227.730469 289.121094 227.640625 288.753906 C 214.367188 290.027344 201.089844 291.382812 187.730469 292.472656 C 174.542969 293.46875 161.359375 294.195312 148.175781 294.921875 C 147.996094 296.914062 147.265625 298.730469 145.996094 300.269531 C 143.265625 303.527344 139.085938 304.707031 135.085938 304.164062 Z M 259.550781 288.300781 C 264.371094 284.859375 269.007812 281.050781 273.371094 276.96875 L 266.460938 259.027344 C 264.28125 259.566406 262.007812 259.386719 259.917969 258.574219 C 253.644531 266.277344 247.371094 273.984375 241.007812 281.59375 C 241.734375 282.589844 242.007812 283.679688 242.007812 284.859375 Z M 270.734375 257.03125 C 272.734375 262.46875 274.828125 267.996094 276.917969 273.53125 C 284.375 266.003906 290.921875 257.667969 296.375 248.597656 C 289.285156 249.230469 282.285156 249.6875 275.28125 250.140625 C 274.554688 252.859375 273.007812 255.308594 270.734375 257.03125 Z M 299.105469 243.796875 C 302.46875 237.636719 305.378906 231.195312 307.738281 224.582031 L 292.011719 212.34375 C 290.558594 213.523438 288.738281 213.980469 286.917969 213.707031 C 282.101562 222.585938 277.28125 231.289062 272.371094 240.082031 C 274.007812 241.53125 275.007812 243.429688 275.371094 245.613281 C 283.285156 245.066406 291.191406 244.429688 299.105469 243.796875 Z M 309.285156 219.867188 C 313.105469 207.539062 315.105469 194.761719 315.285156 181.886719 L 312.921875 174.636719 C 312.015625 174.636719 311.285156 174.636719 310.378906 174.367188 C 304.832031 183.613281 299.285156 192.769531 293.648438 202.011719 C 295.011719 203.824219 295.285156 206.363281 294.558594 208.539062 C 299.46875 212.253906 304.378906 216.058594 309.285156 219.867188 Z M 313.375 157.960938 C 311.195312 145.632812 307.375 133.671875 301.832031 122.429688 L 291.921875 123.878906 C 292.191406 130.132812 286.648438 134.84375 280.464844 133.671875 C 278.644531 138.925781 276.917969 144.183594 275.007812 149.441406 C 276.464844 150.800781 277.007812 151.886719 277.28125 153.882812 C 286.917969 156.601562 296.375 159.230469 305.921875 162.039062 C 307.375 159.230469 310.285156 157.414062 313.375 157.960938 Z M 299.558594 117.988281 C 296.832031 112.914062 293.738281 108.019531 290.375 103.304688 L 286.917969 114.363281 C 288.648438 115.542969 290.011719 117.261719 290.832031 119.167969 Z M 287.011719 98.863281 C 284.011719 95.058594 280.828125 91.429688 277.464844 87.984375 C 266.007812 90.25 254.734375 92.609375 243.28125 95.058594 C 243.371094 95.78125 243.371094 96.234375 243.1875 96.957031 C 253.460938 103.03125 263.554688 109.105469 273.734375 115.269531 C 275.738281 113.09375 277.917969 112.007812 281.191406 112.1875 C 281.738281 112.1875 282.191406 112.277344 282.738281 112.367188 Z M 73.898438 210.890625 C 74.714844 211.34375 75.441406 211.890625 76.171875 212.433594 C 80.898438 208.085938 85.535156 203.730469 90.351562 199.382812 C 86.804688 193.222656 88.988281 184.519531 95.535156 181.433594 C 93.535156 172.644531 91.535156 163.761719 89.628906 154.878906 C 88.082031 147.992188 86.71875 141.011719 85.261719 134.03125 C 84.082031 142.460938 82.988281 150.890625 81.898438 159.324219 C 80.261719 172.917969 78.988281 186.601562 77.625 200.289062 L 77.898438 200.648438 L 77.535156 201.46875 L 77.351562 202.917969 L 76.898438 203.011719 C 75.898438 205.636719 74.898438 208.265625 73.898438 210.890625 Z M 100.078125 180.257812 C 102.71875 180.078125 105.445312 180.988281 107.625 182.527344 C 120.265625 169.566406 132.8125 156.691406 145.539062 143.914062 C 143.902344 141.375 143.175781 138.472656 143.539062 135.480469 C 127.632812 131.222656 111.71875 127.050781 95.898438 122.882812 C 94.714844 126.238281 92.351562 129.046875 89.261719 130.585938 C 90.804688 138.382812 92.441406 146.085938 94.078125 153.792969 C 95.988281 162.582031 98.078125 171.464844 100.078125 180.257812 Z M 96.535156 117.714844 C 96.535156 117.894531 96.535156 118.078125 96.535156 118.261719 C 112.71875 122.429688 128.8125 126.597656 144.902344 130.949219 C 150.996094 118.984375 169.632812 122.792969 169.542969 136.476562 C 169.453125 146.992188 157.449219 153.066406 148.996094 147.265625 C 136.175781 160.136719 123.539062 172.917969 110.992188 185.878906 C 112.808594 188.78125 113.539062 192.316406 112.898438 195.753906 C 124.449219 200.5625 135.902344 205.277344 147.449219 209.984375 C 148.265625 208.992188 149.265625 208.265625 150.449219 207.8125 C 149.355469 195.394531 148.265625 183.066406 147.265625 170.652344 C 141.359375 169.378906 139.085938 161.769531 143.539062 157.324219 C 146.359375 154.429688 151.449219 154.0625 154.449219 156.960938 C 171.363281 147.082031 188.363281 137.292969 205.363281 127.597656 C 205 125.691406 205 123.695312 205.636719 121.796875 C 199.277344 118.261719 192.910156 114.726562 186.636719 111.101562 C 180.726562 117.355469 170.089844 115.542969 166.996094 107.382812 C 154.8125 109.105469 142.632812 110.648438 130.449219 112.460938 C 119.085938 114.179688 107.808594 115.996094 96.535156 117.714844 Z M 144.902344 286.03125 C 146.175781 287.304688 147.085938 288.847656 147.628906 290.480469 C 160.816406 289.753906 174.089844 289.027344 187.273438 288.03125 C 198.546875 287.125 209.820312 286.03125 221.003906 284.945312 C 213.636719 283.226562 206.273438 281.410156 198.90625 279.597656 C 189.183594 277.152344 179.363281 274.523438 169.632812 271.984375 C 166.453125 278.058594 158.632812 279.871094 152.539062 276.882812 C 149.996094 279.964844 147.449219 282.953125 144.902344 286.03125 Z M 188.910156 195.484375 C 177.179688 186.78125 165.359375 178.082031 153.628906 169.292969 C 153.175781 169.652344 152.628906 170.019531 152.085938 170.199219 C 153.085938 182.613281 154.175781 195.035156 155.269531 207.359375 C 157.722656 207.992188 159.816406 209.71875 160.816406 211.984375 L 183.273438 209.984375 C 183 204.550781 185.089844 199.289062 188.910156 195.484375 Z M 163.632812 255.488281 C 172.179688 244.523438 180.636719 233.554688 189 222.585938 C 186.820312 220.5 185.089844 217.511719 184.183594 214.699219 C 176.542969 215.425781 168.90625 216.152344 161.269531 216.785156 C 160.085938 222.765625 152.449219 225.035156 147.996094 220.59375 C 146.449219 218.960938 145.539062 216.691406 145.722656 214.433594 C 134.175781 209.71875 122.71875 205.003906 111.265625 200.109375 C 109.992188 202.191406 108.265625 203.730469 106.082031 204.824219 C 108.265625 213.070312 110.445312 221.226562 112.628906 229.382812 C 117.082031 229.292969 121.265625 231.46875 123.8125 235.097656 C 126.085938 238.355469 126.722656 242.34375 125.71875 246.066406 C 133.175781 250.230469 140.632812 254.3125 148.175781 258.386719 C 152.085938 254.039062 158.359375 252.859375 163.632812 255.488281 Z M 101.625 205.910156 C 98.535156 206.089844 95.625 205.089844 93.261719 203.011719 C 88.535156 207.359375 83.804688 211.710938 79.082031 216.152344 C 81.441406 220.320312 81.441406 225.488281 78.898438 229.566406 C 87.078125 238.628906 95.261719 247.785156 103.625 256.761719 C 111.898438 265.640625 120.355469 274.34375 128.722656 283.042969 C 124.539062 273.34375 120.355469 263.734375 116.265625 254.132812 C 107.898438 254.945312 100.625 248.144531 101.535156 239.628906 C 101.808594 237.089844 102.898438 234.640625 104.71875 232.828125 C 105.71875 231.835938 106.808594 231.015625 108.082031 230.382812 C 105.898438 222.226562 103.71875 214.160156 101.625 205.910156 Z M 133.175781 281.863281 C 136.085938 281.503906 138.632812 281.957031 141.175781 283.226562 C 143.722656 280.144531 146.175781 277.152344 148.722656 274.070312 C 145.8125 270.898438 144.542969 266.550781 145.90625 262.46875 C 138.449219 258.386719 130.996094 254.3125 123.539062 250.140625 C 122.539062 251.140625 121.902344 251.953125 120.628906 252.585938 C 124.8125 262.382812 128.992188 272.074219 133.175781 281.863281 Z M 252.734375 172.097656 C 242.914062 159.863281 233.09375 147.628906 223.1875 135.390625 C 217.910156 138.652344 210.726562 137.027344 207.273438 132.039062 C 190.363281 141.644531 173.636719 151.34375 156.8125 161.132812 C 156.902344 161.675781 156.996094 162.308594 156.996094 162.855469 C 156.996094 163.761719 156.8125 164.671875 156.542969 165.484375 C 168.632812 174.457031 180.816406 183.519531 192.910156 192.496094 C 201.636719 187.507812 212.820312 190.136719 218.183594 198.570312 C 229.003906 193.222656 239.734375 187.875 250.460938 182.527344 C 249.644531 178.898438 250.371094 175 252.734375 172.097656 Z M 229.640625 87.347656 C 229.003906 85.628906 228.367188 83.910156 227.730469 82.183594 C 226.460938 82.183594 224.914062 81.546875 224.003906 81.007812 C 221.730469 79.738281 220.273438 77.558594 220.09375 74.933594 C 220.09375 74.480469 220.09375 73.9375 220.183594 73.394531 C 212.367188 69.132812 204.636719 64.871094 196.820312 60.703125 C 189.363281 56.71875 181.816406 52.910156 174.269531 49.007812 C 172.816406 50.28125 171.453125 51.1875 169.632812 51.910156 C 172.542969 65.503906 175.363281 79.195312 178.179688 92.789062 C 182.726562 92.882812 186.820312 95.417969 188.632812 99.5 C 201.089844 97.414062 213.457031 95.417969 225.820312 93.515625 C 226.09375 90.796875 227.1875 88.710938 229.640625 87.347656 Z M 234.003906 278.964844 L 237.1875 279.144531 C 243.644531 271.441406 250.003906 263.648438 256.371094 255.761719 C 253.640625 252.5 253.457031 248.144531 255.277344 244.339844 L 218.914062 217.691406 C 216.730469 221.773438 213 225.035156 208.636719 226.574219 Z M 189.546875 104.027344 C 189.546875 105.117188 189.363281 106.113281 189 107.113281 C 195.363281 110.648438 201.726562 114.179688 208.09375 117.808594 C 211 114.542969 215.457031 113.367188 219.640625 114.542969 C 222.546875 109.738281 225.546875 104.9375 228.460938 100.132812 L 226.914062 98.046875 C 214.457031 99.953125 202 101.945312 189.546875 104.027344 Z M 282.011719 203.550781 C 277.371094 198.75 272.644531 194.035156 267.917969 189.320312 C 263.007812 192.949219 256.1875 191.769531 252.460938 186.875 C 241.824219 192.222656 231.09375 197.570312 220.273438 202.828125 C 221.367188 206.183594 221.546875 209.625 220.730469 212.980469 C 233.1875 222.226562 245.644531 231.382812 258.1875 240.53125 C 261.003906 238.175781 264.824219 236.816406 268.460938 237.902344 C 273.371094 229.113281 278.191406 220.320312 283.011719 211.4375 C 281.917969 209.984375 281.191406 208.898438 281.28125 206.632812 C 281.28125 205.542969 281.554688 204.457031 282.011719 203.550781 Z M 305.011719 166.480469 C 295.464844 163.851562 285.917969 161.132812 276.28125 158.503906 C 275.007812 160.589844 273.191406 161.496094 270.734375 161.496094 L 267.734375 169.746094 C 272.824219 173.277344 274.28125 180.53125 271.097656 185.789062 C 275.828125 190.503906 280.464844 195.304688 285.101562 200.015625 C 286.558594 199.203125 288.375 198.929688 290.011719 199.289062 C 295.648438 190.136719 301.195312 180.988281 306.742188 171.644531 C 305.742188 170.289062 305.105469 167.839844 305.011719 166.480469 Z M 226.550781 132.128906 C 236.550781 144.453125 246.460938 156.691406 256.277344 169.109375 C 258.554688 167.929688 260.914062 167.570312 263.371094 168.023438 L 266.371094 159.777344 C 263.550781 157.234375 263.277344 152.339844 265.917969 149.621094 C 267.191406 148.261719 269.007812 147.445312 270.734375 147.535156 L 276.28125 131.765625 C 272.464844 128.957031 270.191406 123.878906 271.554688 119.347656 C 261.371094 113.09375 251.191406 106.929688 240.914062 100.859375 C 238.824219 103.03125 235.367188 103.574219 232.460938 102.757812 L 223.914062 116.722656 C 228.640625 120.34375 230.003906 127.144531 226.550781 132.128906 Z M 226.550781 132.128906 " fill-opacity="1" fill-rule="evenodd"/></g></g></g></svg>