<svg xmlns="http://www.w3.org/2000/svg" xmlns:xlink="http://www.w3.org/1999/xlink" width="500" zoomAndPan="magnify" viewBox="0 0 375 374.999991" height="500" preserveAspectRatio="xMidYMid meet" version="1.0"><defs><g/><clipPath id="e0f998bf5f"><path d="M 0.398438 0.398438 L 358 0.398438 L 358 80 L 0.398438 80 Z M 0.398438 0.398438 " clip-rule="nonzero"/></clipPath><clipPath id="d64badf017"><rect x="0" width="358" y="0" height="80"/></clipPath><clipPath id="2ce41d0995"><rect x="0" width="358" y="0" height="106"/></clipPath></defs><g transform="matrix(1, 0, 0, 1, 14, 134)"><g clip-path="url(#2ce41d0995)"><g clip-path="url(#e0f998bf5f)"><g><g clip-path="url(#d64badf017)"><g fill="#ffffff" fill-opacity="1"><g transform="translate(1.160908, 72.775679)"><g><path d="M 9.9375 -29.421875 L 0 -29.421875 L 0 -51.375 C 0 -51.769531 0.238281 -51.96875 0.71875 -51.96875 L 9.21875 -51.96875 C 9.695312 -51.96875 9.9375 -51.769531 9.9375 -51.375 Z M 38.84375 -51.96875 C 39.320312 -51.96875 39.5625 -51.769531 39.5625 -51.375 L 39.5625 -0.578125 C 39.5625 -0.191406 39.320312 0 38.84375 0 L 30.328125 0 C 29.859375 0 29.625 -0.191406 29.625 -0.578125 L 29.625 -9.75 L 9.9375 -9.75 L 9.9375 -0.578125 C 9.9375 -0.191406 9.695312 0 9.21875 0 L 0.71875 0 C 0.238281 0 0 -0.191406 0 -0.578125 L 0 -19.484375 L 9.9375 -19.484375 L 9.9375 -19.421875 L 29.625 -19.421875 L 29.625 -51.375 C 29.625 -51.769531 29.859375 -51.96875 30.328125 -51.96875 Z M 38.84375 -51.96875 "/></g></g></g><g fill="#ffffff" fill-opacity="1"><g transform="translate(54.545761, 72.775679)"><g><path d="M 40.796875 -0.78125 C 40.878906 -0.601562 40.851562 -0.425781 40.71875 -0.25 C 40.59375 -0.0820312 40.421875 0 40.203125 0 L 31.25 0 C 30.9375 0 30.738281 -0.128906 30.65625 -0.390625 L 20.390625 -29.359375 L 10.265625 -0.390625 C 10.222656 -0.128906 10.003906 0 9.609375 0 L 0.71875 0 C 0.414062 0 0.207031 -0.0820312 0.09375 -0.25 C -0.0078125 -0.425781 -0.0195312 -0.601562 0.0625 -0.78125 L 19.75 -51.578125 C 19.832031 -51.835938 20.046875 -51.96875 20.390625 -51.96875 C 20.742188 -51.96875 20.960938 -51.835938 21.046875 -51.578125 Z M 40.796875 -0.78125 "/></g></g></g><g fill="#ffffff" fill-opacity="1"><g transform="translate(109.229356, 72.775679)"><g><path d="M 35.46875 -0.84375 C 35.550781 -0.625 35.535156 -0.425781 35.421875 -0.25 C 35.316406 -0.0820312 35.132812 0 34.875 0 L 25.59375 0 C 25.25 0 25.03125 -0.128906 24.9375 -0.390625 L 15.453125 -20.984375 L 9.875 -20.984375 L 9.875 -0.578125 C 9.875 -0.191406 9.632812 0 9.15625 0 L 0.65625 0 C 0.21875 0 0 -0.191406 0 -0.578125 L 0 -30.53125 L 17.46875 -30.53125 C 17.988281 -30.53125 18.679688 -30.570312 19.546875 -30.65625 C 20.410156 -30.738281 21.265625 -30.972656 22.109375 -31.359375 C 22.960938 -31.753906 23.679688 -32.351562 24.265625 -33.15625 C 24.847656 -33.957031 25.140625 -35.070312 25.140625 -36.5 C 25.140625 -37.925781 24.820312 -39.050781 24.1875 -39.875 C 23.5625 -40.695312 22.796875 -41.289062 21.890625 -41.65625 C 20.984375 -42.03125 20.117188 -42.269531 19.296875 -42.375 C 18.472656 -42.488281 17.863281 -42.546875 17.46875 -42.546875 L 0 -42.546875 L 0 -51.375 C 0 -51.769531 0.21875 -51.96875 0.65625 -51.96875 L 17.46875 -51.96875 C 18.070312 -51.96875 19.046875 -51.910156 20.390625 -51.796875 C 21.734375 -51.691406 23.238281 -51.398438 24.90625 -50.921875 C 26.570312 -50.441406 28.171875 -49.660156 29.703125 -48.578125 C 31.242188 -47.503906 32.515625 -45.988281 33.515625 -44.03125 C 34.515625 -42.082031 35.015625 -39.570312 35.015625 -36.5 C 35.015625 -33.863281 34.578125 -31.625 33.703125 -29.78125 C 32.835938 -27.9375 31.679688 -26.429688 30.234375 -25.265625 C 28.785156 -24.097656 27.195312 -23.1875 25.46875 -22.53125 C 27.113281 -18.851562 28.789062 -15.21875 30.5 -11.625 C 32.207031 -8.03125 33.863281 -4.4375 35.46875 -0.84375 Z M 35.46875 -0.84375 "/></g></g></g><g fill="#ffffff" fill-opacity="1"><g transform="translate(158.39328, 72.775679)"><g><path d="M 4.359375 -43.0625 C 3.878906 -43.0625 3.640625 -43.257812 3.640625 -43.65625 L 3.640625 -51.375 C 3.640625 -51.769531 3.878906 -51.96875 4.359375 -51.96875 L 22.015625 -51.96875 C 22.453125 -51.96875 22.671875 -51.769531 22.671875 -51.375 L 22.671875 -43.0625 Z M 12.796875 -34.171875 L 22.671875 -34.171875 L 22.671875 -15.328125 C 22.671875 -12.773438 22.289062 -10.617188 21.53125 -8.859375 C 20.769531 -7.109375 19.804688 -5.671875 18.640625 -4.546875 C 17.472656 -3.421875 16.226562 -2.539062 14.90625 -1.90625 C 13.582031 -1.28125 12.335938 -0.835938 11.171875 -0.578125 C 10.003906 -0.316406 9.039062 -0.15625 8.28125 -0.09375 C 7.519531 -0.03125 7.140625 0 7.140625 0 L 0.71875 0 C 0.238281 0 0 -0.191406 0 -0.578125 L 0 -9.03125 C 0 -9.414062 0.238281 -9.609375 0.71875 -9.609375 L 7.140625 -9.609375 C 8.566406 -9.609375 9.660156 -9.898438 10.421875 -10.484375 C 11.179688 -11.066406 11.734375 -11.726562 12.078125 -12.46875 C 12.421875 -13.207031 12.625 -13.867188 12.6875 -14.453125 C 12.757812 -15.035156 12.796875 -15.328125 12.796875 -15.328125 Z M 12.796875 -34.171875 "/></g></g></g><g fill="#ffffff" fill-opacity="1"><g transform="translate(194.050223, 72.775679)"><g><path d="M 29.875 -25.84375 C 29.875 -24.507812 29.40625 -23.363281 28.46875 -22.40625 C 27.539062 -21.457031 26.382812 -20.984375 25 -20.984375 C 23.664062 -20.984375 22.519531 -21.457031 21.5625 -22.40625 C 20.613281 -23.363281 20.140625 -24.507812 20.140625 -25.84375 C 20.140625 -27.238281 20.613281 -28.410156 21.5625 -29.359375 C 22.519531 -30.304688 23.664062 -30.78125 25 -30.78125 C 26.382812 -30.78125 27.539062 -30.304688 28.46875 -29.359375 C 29.40625 -28.410156 29.875 -27.238281 29.875 -25.84375 Z M 50.015625 -26.046875 C 50.015625 -22.796875 49.492188 -19.625 48.453125 -16.53125 C 47.410156 -13.4375 45.847656 -10.644531 43.765625 -8.15625 C 41.691406 -5.664062 39.097656 -3.679688 35.984375 -2.203125 C 32.867188 -0.734375 29.234375 0 25.078125 0 C 20.867188 0 17.195312 -0.734375 14.0625 -2.203125 C 10.925781 -3.679688 8.316406 -5.664062 6.234375 -8.15625 C 4.160156 -10.644531 2.601562 -13.4375 1.5625 -16.53125 C 0.519531 -19.625 0 -22.796875 0 -26.046875 C 0 -29.296875 0.519531 -32.457031 1.5625 -35.53125 C 2.601562 -38.601562 4.160156 -41.375 6.234375 -43.84375 C 8.316406 -46.3125 10.925781 -48.28125 14.0625 -49.75 C 17.195312 -51.226562 20.867188 -51.96875 25.078125 -51.96875 C 29.234375 -51.96875 32.867188 -51.226562 35.984375 -49.75 C 39.097656 -48.28125 41.691406 -46.3125 43.765625 -43.84375 C 45.847656 -41.375 47.410156 -38.601562 48.453125 -35.53125 C 49.492188 -32.457031 50.015625 -29.296875 50.015625 -26.046875 Z M 40.265625 -25.84375 C 40.265625 -27.96875 39.941406 -30.035156 39.296875 -32.046875 C 38.648438 -34.066406 37.695312 -35.890625 36.4375 -37.515625 C 35.1875 -39.140625 33.609375 -40.425781 31.703125 -41.375 C 29.796875 -42.320312 27.585938 -42.796875 25.078125 -42.796875 C 22.515625 -42.796875 20.28125 -42.320312 18.375 -41.375 C 16.476562 -40.425781 14.890625 -39.140625 13.609375 -37.515625 C 12.328125 -35.890625 11.375 -34.066406 10.75 -32.046875 C 10.125 -30.035156 9.8125 -27.96875 9.8125 -25.84375 C 9.8125 -23.769531 10.125 -21.738281 10.75 -19.75 C 11.375 -17.757812 12.328125 -15.960938 13.609375 -14.359375 C 14.890625 -12.753906 16.476562 -11.472656 18.375 -10.515625 C 20.28125 -9.566406 22.515625 -9.09375 25.078125 -9.09375 C 27.585938 -9.09375 29.796875 -9.566406 31.703125 -10.515625 C 33.609375 -11.472656 35.1875 -12.753906 36.4375 -14.359375 C 37.695312 -15.960938 38.648438 -17.757812 39.296875 -19.75 C 39.941406 -21.738281 40.265625 -23.769531 40.265625 -25.84375 Z M 40.265625 -25.84375 "/></g></g></g><g fill="#ffffff" fill-opacity="1"><g transform="translate(258.344574, 72.775679)"><g><path d="M 10.71875 -33.125 L 20.59375 -33.125 L 20.59375 -0.578125 C 20.59375 -0.191406 20.332031 0 19.8125 0 L 11.4375 0 C 10.957031 0 10.71875 -0.191406 10.71875 -0.578125 Z M 0.71875 -43.0625 C 0.238281 -43.0625 0 -43.257812 0 -43.65625 L 0 -51.375 C 0 -51.769531 0.238281 -51.96875 0.71875 -51.96875 L 30.53125 -51.96875 C 31.007812 -51.96875 31.25 -51.769531 31.25 -51.375 L 31.25 -43.65625 C 31.25 -43.257812 31.007812 -43.0625 30.53125 -43.0625 Z M 0.71875 -43.0625 "/></g></g></g><g fill="#ffffff" fill-opacity="1"><g transform="translate(302.96289, 72.775679)"><g><path d="M 40.796875 -0.78125 C 40.878906 -0.601562 40.851562 -0.425781 40.71875 -0.25 C 40.59375 -0.0820312 40.421875 0 40.203125 0 L 31.25 0 C 30.9375 0 30.738281 -0.128906 30.65625 -0.390625 L 20.390625 -29.359375 L 10.265625 -0.390625 C 10.222656 -0.128906 10.003906 0 9.609375 0 L 0.71875 0 C 0.414062 0 0.207031 -0.0820312 0.09375 -0.25 C -0.0078125 -0.425781 -0.0195312 -0.601562 0.0625 -0.78125 L 19.75 -51.578125 C 19.832031 -51.835938 20.046875 -51.96875 20.390625 -51.96875 C 20.742188 -51.96875 20.960938 -51.835938 21.046875 -51.578125 Z M 40.796875 -0.78125 "/></g></g></g></g></g></g><g fill="#ffffff" fill-opacity="1"><g transform="translate(153.332625, 101.068392)"><g><path d="M 15.203125 -14.46875 L 15.203125 -11.578125 L 9.40625 -11.578125 L 9.40625 0 L 6.515625 0 L 6.515625 -11.578125 L 0.71875 -11.578125 L 0.71875 -14.46875 Z M 15.203125 -14.46875 "/></g></g></g><g fill="#ffffff" fill-opacity="1"><g transform="translate(169.25355, 101.068392)"><g><path d="M 15.203125 -14.46875 L 15.203125 -11.578125 L 3.625 -11.578125 L 3.625 -8.6875 L 15.203125 -8.6875 L 15.203125 -5.796875 L 3.625 -5.796875 L 3.625 -2.890625 L 15.203125 -2.890625 L 15.203125 0 L 3.625 0 C 3.09375 0 2.601562 -0.128906 2.15625 -0.390625 C 1.71875 -0.648438 1.367188 -1 1.109375 -1.4375 C 0.847656 -1.875 0.71875 -2.359375 0.71875 -2.890625 L 0.71875 -11.578125 C 0.71875 -12.109375 0.847656 -12.59375 1.109375 -13.03125 C 1.367188 -13.476562 1.71875 -13.828125 2.15625 -14.078125 C 2.601562 -14.335938 3.09375 -14.46875 3.625 -14.46875 Z M 15.203125 -14.46875 "/></g></g></g><g fill="#ffffff" fill-opacity="1"><g transform="translate(185.174474, 101.068392)"><g><path d="M 15.203125 0 L 3.625 0 C 3.09375 0 2.601562 -0.128906 2.15625 -0.390625 C 1.71875 -0.648438 1.367188 -1 1.109375 -1.4375 C 0.847656 -1.875 0.71875 -2.359375 0.71875 -2.890625 L 0.71875 -11.578125 C 0.71875 -12.109375 0.847656 -12.59375 1.109375 -13.03125 C 1.367188 -13.476562 1.71875 -13.828125 2.15625 -14.078125 C 2.601562 -14.335938 3.09375 -14.46875 3.625 -14.46875 L 15.203125 -14.46875 L 15.203125 -11.578125 L 3.625 -11.578125 L 3.625 -2.890625 L 15.203125 -2.890625 Z M 15.203125 0 "/></g></g></g><g fill="#ffffff" fill-opacity="1"><g transform="translate(201.095398, 101.068392)"><g><path d="M 12.296875 -8.6875 L 12.296875 -14.46875 L 15.203125 -14.46875 L 15.203125 0 L 12.296875 0 L 12.296875 -5.796875 L 3.625 -5.796875 L 3.625 0 L 0.71875 0 L 0.71875 -14.46875 L 3.625 -14.46875 L 3.625 -8.6875 Z M 12.296875 -8.6875 "/></g></g></g><g fill="#ffffff" fill-opacity="1"><g transform="translate(217.016322, 101.068392)"><g><path d="M 3.625 0 L 0.71875 0 L 0.71875 -13.03125 C 0.71875 -13.425781 0.859375 -13.765625 1.140625 -14.046875 C 1.429688 -14.328125 1.773438 -14.46875 2.171875 -14.46875 C 2.566406 -14.46875 2.910156 -14.328125 3.203125 -14.046875 L 12.296875 -4.9375 L 12.296875 -14.46875 L 15.203125 -14.46875 L 15.203125 -1.453125 C 15.203125 -1.046875 15.054688 -0.703125 14.765625 -0.421875 C 14.484375 -0.140625 14.144531 0 13.75 0 C 13.351562 0 13.007812 -0.144531 12.71875 -0.4375 L 3.625 -9.53125 Z M 3.625 0 "/></g></g></g><g fill="#ffffff" fill-opacity="1"><g transform="translate(232.937246, 101.068392)"><g><path d="M 12.296875 0 L 3.625 0 C 3.09375 0 2.601562 -0.128906 2.15625 -0.390625 C 1.71875 -0.648438 1.367188 -1 1.109375 -1.4375 C 0.847656 -1.875 0.71875 -2.359375 0.71875 -2.890625 L 0.71875 -11.578125 C 0.71875 -12.109375 0.847656 -12.59375 1.109375 -13.03125 C 1.367188 -13.476562 1.71875 -13.828125 2.15625 -14.078125 C 2.601562 -14.335938 3.09375 -14.46875 3.625 -14.46875 L 12.296875 -14.46875 C 12.828125 -14.46875 13.3125 -14.335938 13.75 -14.078125 C 14.195312 -13.828125 14.550781 -13.476562 14.8125 -13.03125 C 15.070312 -12.59375 15.203125 -12.109375 15.203125 -11.578125 L 15.203125 -2.890625 C 15.203125 -2.367188 15.070312 -1.890625 14.8125 -1.453125 C 14.550781 -1.015625 14.203125 -0.660156 13.765625 -0.390625 C 13.335938 -0.128906 12.847656 0 12.296875 0 Z M 3.625 -11.578125 L 3.625 -2.890625 L 12.296875 -2.890625 L 12.296875 -11.578125 Z M 3.625 -11.578125 "/></g></g></g><g fill="#ffffff" fill-opacity="1"><g transform="translate(248.858171, 101.068392)"><g><path d="M 15.203125 0 L 3.625 0 C 3.09375 0 2.601562 -0.128906 2.15625 -0.390625 C 1.71875 -0.648438 1.367188 -1 1.109375 -1.4375 C 0.847656 -1.875 0.71875 -2.359375 0.71875 -2.890625 L 0.71875 -14.46875 L 3.625 -14.46875 L 3.625 -2.890625 L 15.203125 -2.890625 Z M 15.203125 0 "/></g></g></g><g fill="#ffffff" fill-opacity="1"><g transform="translate(264.779095, 101.068392)"><g><path d="M 12.296875 0 L 3.625 0 C 3.09375 0 2.601562 -0.128906 2.15625 -0.390625 C 1.71875 -0.648438 1.367188 -1 1.109375 -1.4375 C 0.847656 -1.875 0.71875 -2.359375 0.71875 -2.890625 L 0.71875 -11.578125 C 0.71875 -12.109375 0.847656 -12.59375 1.109375 -13.03125 C 1.367188 -13.476562 1.71875 -13.828125 2.15625 -14.078125 C 2.601562 -14.335938 3.09375 -14.46875 3.625 -14.46875 L 12.296875 -14.46875 C 12.828125 -14.46875 13.3125 -14.335938 13.75 -14.078125 C 14.195312 -13.828125 14.550781 -13.476562 14.8125 -13.03125 C 15.070312 -12.59375 15.203125 -12.109375 15.203125 -11.578125 L 15.203125 -2.890625 C 15.203125 -2.367188 15.070312 -1.890625 14.8125 -1.453125 C 14.550781 -1.015625 14.203125 -0.660156 13.765625 -0.390625 C 13.335938 -0.128906 12.847656 0 12.296875 0 Z M 3.625 -11.578125 L 3.625 -2.890625 L 12.296875 -2.890625 L 12.296875 -11.578125 Z M 3.625 -11.578125 "/></g></g></g><g fill="#ffffff" fill-opacity="1"><g transform="translate(280.700019, 101.068392)"><g><path d="M 15.203125 -14.46875 L 15.203125 -11.578125 L 3.625 -11.578125 L 3.625 -2.890625 L 12.296875 -2.890625 L 12.296875 -5.796875 L 6.515625 -5.796875 L 6.515625 -8.6875 L 15.203125 -8.6875 L 15.203125 -2.890625 C 15.203125 -2.367188 15.070312 -1.890625 14.8125 -1.453125 C 14.550781 -1.015625 14.203125 -0.660156 13.765625 -0.390625 C 13.335938 -0.128906 12.847656 0 12.296875 0 L 3.625 0 C 3.09375 0 2.601562 -0.128906 2.15625 -0.390625 C 1.71875 -0.648438 1.367188 -1 1.109375 -1.4375 C 0.847656 -1.875 0.71875 -2.359375 0.71875 -2.890625 L 0.71875 -11.578125 C 0.71875 -12.109375 0.847656 -12.59375 1.109375 -13.03125 C 1.367188 -13.476562 1.71875 -13.828125 2.15625 -14.078125 C 2.601562 -14.335938 3.09375 -14.46875 3.625 -14.46875 Z M 15.203125 -14.46875 "/></g></g></g><g fill="#ffffff" fill-opacity="1"><g transform="translate(296.620943, 101.068392)"><g><path d="M 15.203125 0 L 0.71875 0 L 0.71875 -2.890625 L 6.515625 -2.890625 L 6.515625 -11.578125 L 0.71875 -11.578125 L 0.71875 -14.46875 L 15.203125 -14.46875 L 15.203125 -11.578125 L 9.40625 -11.578125 L 9.40625 -2.890625 L 15.203125 -2.890625 Z M 15.203125 0 "/></g></g></g><g fill="#ffffff" fill-opacity="1"><g transform="translate(312.541867, 101.068392)"><g><path d="M 15.203125 -14.46875 L 15.203125 -11.578125 L 3.625 -11.578125 L 3.625 -8.6875 L 15.203125 -8.6875 L 15.203125 -5.796875 L 3.625 -5.796875 L 3.625 -2.890625 L 15.203125 -2.890625 L 15.203125 0 L 3.625 0 C 3.09375 0 2.601562 -0.128906 2.15625 -0.390625 C 1.71875 -0.648438 1.367188 -1 1.109375 -1.4375 C 0.847656 -1.875 0.71875 -2.359375 0.71875 -2.890625 L 0.71875 -11.578125 C 0.71875 -12.109375 0.847656 -12.59375 1.109375 -13.03125 C 1.367188 -13.476562 1.71875 -13.828125 2.15625 -14.078125 C 2.601562 -14.335938 3.09375 -14.46875 3.625 -14.46875 Z M 15.203125 -14.46875 "/></g></g></g><g fill="#ffffff" fill-opacity="1"><g transform="translate(328.462792, 101.068392)"><g><path d="M 15.203125 -14.46875 L 15.203125 -11.578125 L 3.625 -11.578125 L 3.625 -8.6875 L 12.296875 -8.6875 C 12.828125 -8.6875 13.3125 -8.554688 13.75 -8.296875 C 14.195312 -8.035156 14.550781 -7.6875 14.8125 -7.25 C 15.070312 -6.8125 15.203125 -6.328125 15.203125 -5.796875 L 15.203125 -2.890625 C 15.203125 -2.359375 15.070312 -1.875 14.8125 -1.4375 C 14.550781 -1 14.195312 -0.648438 13.75 -0.390625 C 13.3125 -0.128906 12.828125 0 12.296875 0 L 0.71875 0 L 0.71875 -2.890625 L 12.296875 -2.890625 L 12.296875 -5.796875 L 3.625 -5.796875 C 3.09375 -5.796875 2.601562 -5.921875 2.15625 -6.171875 C 1.71875 -6.429688 1.367188 -6.78125 1.109375 -7.21875 C 0.847656 -7.664062 0.71875 -8.15625 0.71875 -8.6875 L 0.71875 -11.578125 C 0.71875 -12.109375 0.847656 -12.59375 1.109375 -13.03125 C 1.367188 -13.476562 1.71875 -13.828125 2.15625 -14.078125 C 2.601562 -14.335938 3.09375 -14.46875 3.625 -14.46875 Z M 15.203125 -14.46875 "/></g></g></g></g></g></svg>